PathFileType	4	(X/Y/Z)	RBDS027\RBDS027runT25.trc
DataRate	CameraRate	NumFrames	NumMarkers	Units	OrigDataRate	OrigDataStartFrame	OrigNumFrames
150.000000	150.000000	4	33	mm	150.000000	3375	4500
Frame#	Time	L.ASIS			L.Heel.Bottom			L.Heel.Lateral			L.Heel.Top			L.Iliac.Crest			L.MT1			L.MT5			L.PSIS			L.Shank.Bottom.Lateral			L.Shank.Bottom.Medial			L.Shank.Top.Lateral			L.Shank.Top.Medial			L.Thigh.Bottom.Lateral			L.Thigh.Bottom.Medial			L.Thigh.Top.Lateral			L.Thigh.Top.Medial			R.ASIS			R.ASY			R.Heel.Bottom			R.Heel.Lateral			R.Heel.Top			R.Iliac.Crest			R.MT1			R.MT5			R.PSIS			R.Shank.Bottom.Lateral			R.Shank.Bottom.Medial			R.Shank.Top.Lateral			R.Shank.Top.Medial			R.Thigh.Bottom.Lateral			R.Thigh.Bottom.Medial			R.Thigh.Top.Lateral			R.Thigh.Top.Medial			
		X1	Y1	Z1	X2	Y2	Z2	X3	Y3	Z3	X4	Y4	Z4	X5	Y5	Z5	X6	Y6	Z6	X7	Y7	Z7	X8	Y8	Z8	X9	Y9	Z9	X10	Y10	Z10	X11	Y11	Z11	X12	Y12	Z12	X13	Y13	Z13	X14	Y14	Z14	X15	Y15	Z15	X16	Y16	Z16	X17	Y17	Z17	X18	Y18	Z18	X19	Y19	Z19	X20	Y20	Z20	X21	Y21	Z21	X22	Y22	Z22	X23	Y23	Z23	X24	Y24	Z24	X25	Y25	Z25	X26	Y26	Z26	X27	Y27	Z27	X28	Y28	Z28	X29	Y29	Z29	X30	Y30	Z30	X31	Y31	Z31	X32	Y32	Z32	X33	Y33	Z33	

3376	22.5	2198.30250717944	911.4199819841415	871.7814344038915	2116.673976965791	64.76505103072914	940.4264491954606	2147.691515105074	79.87165097103822	893.926963759711	2135.911767613625	111.448183524111	939.2487830646642	2141.294026261382	995.0308234489386	836.9516915192952	2333.671072475634	53.19989522215764	971.5615384953056	2294.581764838411	50.41579550573233	864.9422881754602	2036.666931618246	946.8631990670198	944.8860678318053	2203.69814220059	185.6020913191103	876.8838957017737	2168.122487334419	192.7415019737373	918.9783812713521	2198.779401163273	265.0465475517374	861.3007666671878	2168.637839255031	272.8663654504115	905.4182546398825	2249.82188185074	577.2018433165764	830.9271268956542	2197.169279107167	549.0337304201506	869.8909905782807	2187.158059629382	666.3313960972939	814.527745452876	2137.500775151925	640.8630948882972	853.3167532353764	2188.895650383813	905.1168299248344	1131.506307761421	1797.205935341837	95.40149396588735	1050.720793524043	1646.094057631308	206.5392290195611	1020.462273879447	1668.597249653804	188.1577488402901	1067.477224840276	1686.2739519652	224.874372680468	1031.360193111987	2162.088121530448	994.7881023989728	1145.088480351734	1785.350599493554	45.83334748098707	988.6715225545677	1742.568134327541	62.92894420740129	1099.490877990498	2037.035111351996	951.4995658560222	1043.722962700635	1761.657227604847	243.9305751588325	1093.78154192337	1747.462381990262	268.277436136596	1051.306941121087	1801.197291210411	314.766754854724	1119.021159243514	1783.756850221186	336.9784373964576	1073.772515494422	1995.73673412478	568.1077982103583	1159.231611873692	1949.358488170822	584.1213977833618	1105.235622143329	2013.654115752588	675.6737339377886	1171.020319248083	1970.985649251954	691.3042834363767	1117.793393511602	
3377	22.50666666666667	2199.961569450699	913.8633724112084	872.4042403588112	2138.606417944764	56.92581189897556	943.5274366299528	2168.644200256134	72.28792000535996	896.4226451348543	2155.69382036668	104.3354365426091	941.0970869382879	2143.184512124142	997.9732388895476	837.2005827990242	2356.105473002631	55.77117168424203	973.1722755673699	2316.513911506288	48.74318981158772	866.9824191012834	2038.911459119999	950.3664484111315	945.230085815656	2218.676342105223	181.2731823309378	877.7575252615945	2182.992918687506	186.5964870430259	920.0188511964143	2209.071780621337	260.1351207425317	861.708076249914	2178.780581926177	266.5842108035066	906.0024095326162	2247.224145285662	577.5926594209421	830.9869822025036	2194.357734982552	550.2661155724066	870.1390841143469	2186.003298738396	667.708992716305	814.7623561504553	2136.10316209736	643.0370430721896	853.6888145235338	2190.981431502298	907.2478304809259	1131.600314307199	1787.941385929437	99.98074918378332	1052.070832911364	1640.752462495079	217.1277122394421	1023.28339307006	1662.837315152242	197.6239468413851	1070.056551017801	1681.773348544536	233.7466448539767	1034.001487327571	2165.634413049186	997.8392536946283	1144.905749801931	1773.609224943115	50.47282086168259	990.0930965248499	1732.22510338971	68.47560153889384	1100.834822704993	2039.31693753069	955.2658375784383	1044.286221325223	1755.53857033918	250.0482605454803	1095.514553002324	1741.289674443373	274.0461879320586	1052.846702456754	1795.389017838847	320.9800660130365	1120.00985935922	1777.618830348641	342.9476193009085	1074.770054423736	1992.146261593553	573.538972487144	1158.659423983988	1946.387016274284	590.8221967520333	1104.519793939147	2012.405491127919	680.6310272057465	1170.938876283257	1970.47129624335	697.3961777156812	1117.483363063336	
3378	22.51333333333334	2201.467158956149	915.7018010641692	873.0885644772461	2159.754736747318	50.59999278940719	946.6283490722075	2188.896860162424	65.95895310407469	898.9207154713652	2174.821062532847	98.54547957593617	942.8573075063081	2144.987346021191	1000.179566023598	837.421841932616	2377.280223531431	59.15653547637817	974.6643017752715	2337.442226914379	47.73142433329169	869.0332387837831	2040.976374710106	953.3889845954942	945.5868106467211	2233.060748894569	177.7743153822547	878.5363924054584	2197.39943151608	181.3684651449114	921.004654354773	2219.05466257247	255.8145639020535	862.1511778847371	2188.732539105607	260.9744853068032	906.6514902278269	2244.239667875681	577.3849191491395	830.905158974083	2191.346056345831	550.9876681316478	870.5061666800482	2184.420618624196	668.4356521150213	814.8915077432008	2134.420132473201	644.6066183212653	854.1358875568613	2192.925220746686	909.0982367246747	1131.742901876771	1778.910292294468	105.0124995130622	1053.388046392637	1635.56197645174	227.453643745075	1025.780489508712	1657.203481702716	207.0125800985458	1072.374121384591	1677.303696870344	242.4823139035347	1036.30803457507	2168.658631277392	1000.40896197983	1144.788751156561	1762.310065018965	55.55663780349497	991.6187083054641	1722.28023298505	74.47663253515665	1102.209841714615	2041.429880110026	958.6053594492489	1044.827322054559	1749.753546788889	256.2308323063193	1097.104133282369	1735.393562638834	280.0270204966309	1054.356435308727	1790.141240302061	327.0904489141326	1120.929888561961	1771.992858065559	348.971916255009	1075.798787786536	1989.430776385788	578.3527289883336	1157.892616306421	1944.112290097303	596.8468597794232	1103.797383927389	2011.769093348278	684.9488033741186	1170.789010717647	1970.348146501403	702.8121766178747	1117.302677757012	
3379	22.52	2202.789632983679	916.9729822725965	873.7763283620438	2179.811216689394	45.71892335255261	949.6722120280039	2208.170749544665	60.83003539334342	901.3899877482196	2193.010333077851	94.02290062992719	944.4913467379627	2146.648299788383	1001.688503353584	837.6110221715937	2396.983166147889	63.21337270005242	976.0509480904648	2357.156269423814	47.26871991582146	871.1104299525779	2042.818724234489	955.891965945377	945.9554396552886	2246.654296277085	175.0847564326382	879.2275001780237	2211.142871122767	177.0579982798162	921.9449129011167	2228.584787121924	252.1242419908358	862.6497717379583	2198.347386850959	256.0851393581604	907.3849889082967	2240.973556298603	576.6547297493603	830.6960502111384	2188.256273198149	551.2587827390063	871.020308848114	2182.456153026105	668.553430097666	814.9126728757129	2132.523958152834	645.6024024790198	854.6798318330511	2194.742421848697	910.6525639445773	1131.888923124252	1770.080706851114	110.4400048191789	1054.677677632448	1630.415322870439	237.4429880854731	1027.831688335154	1651.590441336715	216.2740453952635	1074.325026088766	1672.759516569836	251.0352789547185	1038.173687418361	2171.149339475569	1002.514739776994	1144.710817477627	1751.471330557509	61.00307354437452	993.2383933362329	1712.68048648679	80.90028471392013	1103.602845460133	2043.360336316665	961.4677811956965	1045.349418000826	1744.230647059214	262.4651735588507	1098.495899644898	1729.751254987404	286.2027211246901	1055.75834185388	1785.382224080578	333.0749763074807	1121.745300719488	1766.875414167559	355.0163039973484	1076.790182784323	1987.61295464913	582.4517671766575	1156.990240689006	1942.541275848461	602.0909392266497	1103.127361258893	2011.763595088583	688.5511591870834	1170.603872592917	1970.610001554217	707.4717190769593	1117.291183973638	
